<?xml version="1.0" encoding="UTF-8"?>
<svg id="Layer_2" data-name="Layer 2" xmlns="http://www.w3.org/2000/svg" viewBox="0 0 156.39 8.48">
  <defs>
    <style>
      .cls-1 {
        fill: #ff474a;
      }
    </style>
  </defs>
  <g id="Layer_2-2" data-name="Layer 2">
    <g>
      <g>
        <rect class="cls-1" x="75.19" y="1.24" width="6" height="6" transform="translate(130.49 62.53) rotate(-135)"/>
        <rect class="cls-1" x="56.34" y="1.24" width="6" height="6" rx="3" ry="3" transform="translate(98.3 49.2) rotate(-135)"/>
        <polygon class="cls-1" points="37.48 2.18 37.48 1.24 43.48 1.24 43.48 2.18 41.63 4.27 41.63 4.21 43.48 6.3 43.48 7.24 37.48 7.24 37.48 6.3 39.34 4.21 39.34 4.27 37.48 2.18"/>
        <rect class="cls-1" x="18.63" y="1.24" width="6" height="6" transform="translate(17.38 25.87) rotate(-90)"/>
        <polygon class="cls-1" points="2.87 7.24 0 7.24 0 6.3 1.83 4.24 1.86 4.27 1.86 4.21 1.83 4.24 0 2.18 0 1.24 2.87 1.24 5.54 4.24 2.87 7.24"/>
      </g>
      <g>
        <rect class="cls-1" x="94.05" y="1.24" width="6" height="6" rx="3" ry="3" transform="translate(25.43 69.87) rotate(-45)"/>
        <polygon class="cls-1" points="118.91 2.18 118.91 1.24 112.91 1.24 112.91 2.18 114.76 4.27 114.76 4.21 112.91 6.3 112.91 7.24 118.91 7.24 118.91 6.3 117.05 4.21 117.05 4.27 118.91 2.18"/>
        <rect class="cls-1" x="131.76" y="1.24" width="6" height="6" transform="translate(130.52 139) rotate(-90)"/>
        <polygon class="cls-1" points="153.51 7.24 156.39 7.24 156.39 6.3 154.56 4.24 154.53 4.27 154.53 4.21 154.56 4.24 156.39 2.18 156.39 1.24 153.51 1.24 150.85 4.24 153.51 7.24"/>
      </g>
    </g>
  </g>
</svg>