<?xml version="1.0" encoding="UTF-8"?>
<svg id="Layer_2" data-name="Layer 2" xmlns="http://www.w3.org/2000/svg" xmlns:xlink="http://www.w3.org/1999/xlink" viewBox="0 0 1486.16 262.38">
  <defs>
    <style>
      .cls-1 {
        mask: url(#mask);
      }

      .cls-2 {
        fill: url(#radial-gradient);
      }

      .cls-3 {
        opacity: .1;
      }

      .cls-4 {
        fill: #ff474a;
      }
    </style>
    <radialGradient id="radial-gradient" cx="475.76" cy="257.4" fx="475.76" fy="257.4" r="1666.47" gradientTransform="translate(.03 107.61) rotate(.01) scale(1 .58)" gradientUnits="userSpaceOnUse">
      <stop offset="0" stop-color="#fff"/>
      <stop offset="0" stop-color="#f5f5f5"/>
      <stop offset=".05" stop-color="#c7c7c7"/>
      <stop offset=".09" stop-color="#9c9c9c"/>
      <stop offset=".14" stop-color="#777"/>
      <stop offset=".2" stop-color="#565656"/>
      <stop offset=".25" stop-color="#3b3b3b"/>
      <stop offset=".32" stop-color="#252525"/>
      <stop offset=".4" stop-color="#141414"/>
      <stop offset=".49" stop-color="#080808"/>
      <stop offset=".63" stop-color="#010101"/>
      <stop offset="1" stop-color="#000"/>
    </radialGradient>
    <mask id="mask" x="0" y="-123.62" width="1449.01" height="397.66" maskUnits="userSpaceOnUse">
      <rect class="cls-2" x="33.83" y="-123.62" width="1280" height="397.66"/>
    </mask>
  </defs>
  <g id="Layer_2-2" data-name="Layer 2">
    <g class="cls-1">
      <g class="cls-3">
        <g>
          <path class="cls-4" d="M248.51,104.15c-20.41.05-40.82.11-61.23.17-3.12-35.61-12.46-71.22-28.01-106.83C106.17-1.77,53.09-.94,0,0,49.54,87.46,49.54,174.92,0,262.38c53.09.94,106.17,1.77,159.26,2.51,14.35-32.85,23.4-65.7,27.17-98.56,20.44.08,40.88.15,61.33.22-3.36,33.06-11.42,66.12-24.18,99.18,9.41.12,18.82.23,28.23.34,32.75-89.92,32.75-179.84,0-269.77-9.41.11-18.82.22-28.23.34,13.84,35.84,22.15,71.67,24.93,107.51Z"/>
          <path class="cls-4" d="M372.34,162.27c35.63.08,71.27.15,106.9.2.83-18.03.95-36.06.34-54.08-35.59.04-71.17.09-106.76.15-.7-14.72-2.09-29.43-4.16-44.15,39.87-.19,79.73-.35,119.6-.47-2.21-23.21-5.55-46.42-10.05-69.63-64.25.4-128.51.96-192.76,1.65,30.51,90.17,30.51,180.35,0,270.52,65.53.71,131.06,1.27,196.6,1.68,4.43-23.22,7.73-46.43,9.9-69.65-41.1-.13-82.19-.29-123.29-.49,1.68-11.91,2.9-23.82,3.68-35.73Z"/>
          <path class="cls-4" d="M746.27,196.92c-47.64,0-95.27-.04-142.91-.12,3.42-67.7,1.54-135.4-5.61-203.11-27.36.09-54.71.22-82.07.36,15.16,91.42,15.16,182.85,0,274.27,76.91.42,153.82.62,230.72.61-.06-24.01-.1-48.02-.13-72.02Z"/>
          <path class="cls-4" d="M851.28-6.42c-28.57-.07-57.14-.12-85.71-.13-1.5,91.83-1.5,183.66,0,275.49,42.31-.02,84.62-.11,126.93-.26-2.6-23.96-4.53-47.92-5.77-71.89-13.21.02-26.42.04-39.63.06-2.54-67.76-1.15-135.51,4.18-203.27Z"/>
          <path class="cls-4" d="M1354.97-2.11c-104.03-1.51-208.07-2.64-312.1-3.38-73.74-.59-140.62,60.74-139.62,136.68t0,0c-1,75.94,65.88,137.27,139.62,136.68,104.03-.74,208.07-1.87,312.1-3.38,74.52-1.27,94.27-61.09,94.04-133.3t0,0c.24-72.21-19.51-132.03-94.04-133.3ZM1259.93,131.19c.02,44.66-23.92,81.2-66.73,81.55-47.81.33-95.61.61-143.42.83-42.56.23-81.21-36.69-80.95-82.38t0,0c-.26-45.7,38.4-82.61,80.95-82.38,47.81.22,95.61.5,143.42.83,42.81.35,66.75,36.89,66.73,81.55t0,0Z"/>
        </g>
      </g>
    </g>
  </g>
</svg>