<?xml version="1.0" encoding="UTF-8"?><svg id="uuid-52127d71-5fdc-4a86-bcab-b0d86b045695" xmlns="http://www.w3.org/2000/svg" viewBox="0 0 180 180"><defs><style>.uuid-675939aa-3b01-4e12-8d17-8a8dd8bc1779{fill:#fff;}.uuid-69be52c8-1563-443d-9d67-258ae739049b{fill:#140202;}.uuid-9009e571-2ec4-465c-b4cd-429e9eb9089b{fill:#ff474a;}</style></defs><rect class="uuid-69be52c8-1563-443d-9d67-258ae739049b" width="180" height="180"/><g><path class="uuid-675939aa-3b01-4e12-8d17-8a8dd8bc1779" d="M48.19,44.97c6.92,0,12.5,.98,16.75,2.94,4.25,1.96,7.35,4.64,9.31,8.03,1.96,3.4,2.94,7.24,2.94,11.53s-.85,8.16-2.56,11.34c-1.71,3.19-3.84,5.68-6.41,7.47-2.56,1.79-5.14,2.81-7.72,3.06,2.58,.08,5.36,.81,8.34,2.19,2.98,1.38,5.52,3.6,7.62,6.69,2.1,3.08,3.16,7.23,3.16,12.44,0,4.75-.96,9.13-2.88,13.16-1.92,4.02-5.16,7.25-9.72,9.69s-10.84,3.66-18.84,3.66H7.88V44.97H48.19Zm-6.56,18.75h-9.75v17h9.75c3.75,0,6.43-.86,8.03-2.59,1.6-1.73,2.41-3.82,2.41-6.28,0-2.58-.8-4.58-2.41-6-1.6-1.42-4.28-2.12-8.03-2.12Zm1.62,54.63c3.75,0,6.47-.91,8.16-2.72s2.53-3.99,2.53-6.53-.84-4.75-2.53-6.75-4.41-3-8.16-3h-11.38v19h11.38Z"/><path class="uuid-9009e571-2ec4-465c-b4cd-429e9eb9089b" d="M169.56,44.97v92.19h-25.25v-36.44h-28.19v36.44h-25.25V44.97h25.25v36.94h28.19V44.97h25.25Z"/></g></svg>